<?xml version="1.0" encoding="UTF-8" standalone="no"?>
<svg
   xmlns:dc="http://purl.org/dc/elements/1.1/"
   xmlns:cc="http://creativecommons.org/ns#"
   xmlns:rdf="http://www.w3.org/1999/02/22-rdf-syntax-ns#"
   xmlns:svg="http://www.w3.org/2000/svg"
   xmlns="http://www.w3.org/2000/svg"
   xmlns:sodipodi="http://sodipodi.sourceforge.net/DTD/sodipodi-0.dtd"
   xmlns:inkscape="http://www.inkscape.org/namespaces/inkscape"
   height="512pt"
   viewBox="0 0 512 512"
   width="512pt"
   version="1.1"
   id="svg1724"
   sodipodi:docname="service_1.svg"
   inkscape:version="0.92.5 (2060ec1f9f, 2020-04-08)">
  <metadata
     id="metadata1730">
    <rdf:RDF>
      <cc:Work
         rdf:about="">
        <dc:format>image/svg+xml</dc:format>
        <dc:type
           rdf:resource="http://purl.org/dc/dcmitype/StillImage" />
        <dc:title></dc:title>
      </cc:Work>
    </rdf:RDF>
  </metadata>
  <defs
     id="defs1728" />
  <sodipodi:namedview
     pagecolor="#ffffff"
     bordercolor="#666666"
     borderopacity="1"
     objecttolerance="10"
     gridtolerance="10"
     guidetolerance="10"
     inkscape:pageopacity="0"
     inkscape:pageshadow="2"
     inkscape:window-width="1364"
     inkscape:window-height="734"
     id="namedview1726"
     showgrid="false"
     inkscape:zoom="0.24444902"
     inkscape:cx="246.12786"
     inkscape:cy="341.33333"
     inkscape:window-x="0"
     inkscape:window-y="33"
     inkscape:window-maximized="0"
     inkscape:current-layer="svg1724" />
  <path
     d="m256 419.023438c-33.8125 0-65.566406-13.136719-89.414062-36.984376-20.578126-20.578124-33.492188-47.871093-36.363282-76.851562-2.828125-28.570312 4.160156-57.472656 19.683594-81.390625 4.980469-7.671875 13.042969-12.621094 22.125-13.574219 9.023438-.953125 17.894531 2.1875 24.316406 8.609375 9.980469 9.980469 11.667969 25.734375 4.007813 37.453125-17.097657 26.167969-13.457031 61.210938 8.65625 83.328125 12.527343 12.527344 29.214843 19.425781 46.988281 19.425781h.003906c17.773438 0 34.457032-6.898437 46.984375-19.425781 22.113281-22.113281 25.753907-57.160156 8.65625-83.324219-7.660156-11.722656-5.976562-27.476562 4.007813-37.457031 6.421875-6.421875 15.28125-9.5625 24.316406-8.609375 9.078125.953125 17.144531 5.902344 22.125 13.574219 15.519531 23.917969 22.511719 52.820313 19.679688 81.390625-2.867188 28.980469-15.78125 56.273438-36.359376 76.851562-23.847656 23.851563-55.601562 36.984376-89.414062 36.984376zm-80.808594-188.96875c-.398437 0-.761718.023437-1.070312.058593-3.046875.320313-5.757813 1.988281-7.4375 4.574219-27.175782 41.875-21.269532 97.898438 14.046875 133.210938 20.066406 20.070312 46.800781 31.125 75.269531 31.125s55.203125-11.054688 75.273438-31.125c35.3125-35.3125 41.222656-91.335938 14.046874-133.210938-1.683593-2.585938-4.394531-4.253906-7.441406-4.574219-1.765625-.1875-5.160156-.0625-8.085937 2.863281-3.324219 3.324219-3.917969 8.527344-1.40625 12.371094 22.246093 34.046875 17.515625 79.636719-11.253907 108.410156-16.308593 16.304688-38.015624 25.285157-61.125 25.285157-.003906 0-.003906 0-.007812 0-23.117188-.003907-44.824219-8.984375-61.128906-25.285157-28.773438-28.773437-33.503906-74.363281-11.257813-108.410156 2.511719-3.84375 1.917969-9.046875-1.40625-12.371094-2.414062-2.414062-5.144531-2.921874-7.015625-2.921874zm0 0"
     id="path1716"
     style="stroke:none;stroke-opacity:1;fill:#505050;fill-opacity:1" />
  <path
     d="m256 306.003906c-16.542969 0-30-13.460937-30-30v-71.335937c0-16.539063 13.457031-30 30-30s30 13.460937 30 30v71.335937c0 16.539063-13.457031 30-30 30zm0-111.335937c-5.515625 0-10 4.484375-10 10v71.332031c0 5.515625 4.484375 10 10 10 5.511719 0 10-4.484375 10-10v-71.332031c0-5.515625-4.488281-10-10-10zm0 0"
     id="path1718"
     style="stroke:none;stroke-opacity:1;fill:#505050;fill-opacity:1" />
  <path
     d="m436 357.449219c-2.628906 0-5.210938-1.070313-7.070312-2.929688-1.859376-1.859375-2.929688-4.441406-2.929688-7.070312 0-2.628907 1.070312-5.210938 2.929688-7.070313 1.859374-1.859375 4.441406-2.929687 7.070312-2.929687s5.210938 1.070312 7.070312 2.929687c1.859376 1.859375 2.929688 4.441406 2.929688 7.070313 0 2.628906-1.070312 5.210937-2.929688 7.070312-1.859374 1.859375-4.441406 2.929688-7.070312 2.929688zm0 0"
     id="path1720"
     style="stroke:none;stroke-opacity:1;fill:#505050;fill-opacity:1" />
  <path
     d="m436 317.449219c5.523438 0 10-4.476563 10-10v-74.773438l14.371094 11.125c3.984375 3.082031 9.636718 2.71875 13.195312-.839843l35.503906-35.523438c2.03125-2.03125 3.089844-4.839844 2.910157-7.703125-.183594-2.867187-1.589844-5.515625-3.859375-7.273437l-61.035156-47.234376v-91.226562c0-5.523438-4.476563-10-10-10h-56c-5.523438 0-10 4.476562-10 10v32.414062l-108.964844-84.324218c-3.605469-2.785156-8.636719-2.785156-12.242188 0l-246 190.367187c-2.269531 1.757813-3.675781 4.402344-3.8593748 7.269531-.1835932 2.863282.8710938 5.667969 2.8984378 7.699219l35.449219 35.566407c1.9375 1.949218 4.503906 2.941406 7.085937 2.941406 2.144531 0 4.304687-.6875 6.117187-2.089844l14.429688-11.167969v211.28125h-22c-5.523438 0-10 4.476563-10 10v48.042969c0 5.523438 4.476562 10 10 10h424c5.523438 0 10-4.476562 10-10v-48.042969c0-5.523437-4.476562-10-10-10h-22v-56.507812c0-5.523438-4.476562-10-10-10s-10 4.476562-10 10v56.507812h-340v-226.757812l170-131.554688 170 131.554688v90.25c0 5.523437 4.476562 10 10 10zm-44.914062-253.449219h36v65.75l-36-27.859375zm44.914062 399.957031h22v28.042969h-404v-28.042969zm-186.121094-398.867187-203.574218 157.539062-21.21875-21.292968 230.914062-178.691407 230.902344 178.683594-21.253906 21.261719-203.527344-157.5c-3.605469-2.785156-8.636719-2.785156-12.242188 0zm0 0"
     id="path1722"
     style="stroke:none;stroke-opacity:1;fill:#505050;fill-opacity:1" />
</svg>
