<?xml version="1.0" encoding="UTF-8" standalone="no"?>
<!-- Generator: Adobe Illustrator 19.0.0, SVG Export Plug-In . SVG Version: 6.00 Build 0)  -->

<svg
   xmlns:dc="http://purl.org/dc/elements/1.1/"
   xmlns:cc="http://creativecommons.org/ns#"
   xmlns:rdf="http://www.w3.org/1999/02/22-rdf-syntax-ns#"
   xmlns:svg="http://www.w3.org/2000/svg"
   xmlns="http://www.w3.org/2000/svg"
   xmlns:sodipodi="http://sodipodi.sourceforge.net/DTD/sodipodi-0.dtd"
   xmlns:inkscape="http://www.inkscape.org/namespaces/inkscape"
   version="1.1"
   id="Capa_1"
   x="0px"
   y="0px"
   viewBox="0 0 480 480"
   style="enable-background:new 0 0 480 480;"
   xml:space="preserve"
   sodipodi:docname="service_3.svg"
   inkscape:version="0.92.5 (2060ec1f9f, 2020-04-08)"><metadata
   id="metadata2586"><rdf:RDF><cc:Work
       rdf:about=""><dc:format>image/svg+xml</dc:format><dc:type
         rdf:resource="http://purl.org/dc/dcmitype/StillImage" /><dc:title></dc:title></cc:Work></rdf:RDF></metadata><defs
   id="defs2584" /><sodipodi:namedview
   pagecolor="#ffffff"
   bordercolor="#666666"
   borderopacity="1"
   objecttolerance="10"
   gridtolerance="10"
   guidetolerance="10"
   inkscape:pageopacity="0"
   inkscape:pageshadow="2"
   inkscape:window-width="1364"
   inkscape:window-height="734"
   id="namedview2582"
   showgrid="false"
   inkscape:zoom="0.34766083"
   inkscape:cx="225.08834"
   inkscape:cy="240"
   inkscape:window-x="0"
   inkscape:window-y="33"
   inkscape:window-maximized="0"
   inkscape:current-layer="Capa_1" />
<g
   id="g2453"
   style="fill:#505050;fill-opacity:1">
	<g
   id="g2451"
   style="fill:#505050;fill-opacity:1">
		<path
   d="M440,0H40C17.944,0,0,17.944,0,40v344c0,22.056,17.944,40,40,40h149.392l-11.432,40H136v16h48h112h48v-16h-41.968    L290.6,424H440c22.056,0,40-17.944,40-40V40C480,17.944,462.056,0,440,0z M194.608,464l11.432-40h67.928l11.424,40H194.608z     M464,384c0,13.232-10.768,24-24,24H280h-80H40c-13.232,0-24-10.768-24-24v-8h448V384z M464,360H16V40c0-13.232,10.768-24,24-24    h400c13.232,0,24,10.768,24,24V360z"
   id="path2449"
   style="fill:#505050;fill-opacity:1" />
	</g>
</g>
<g
   id="g2459"
   style="fill:#505050;fill-opacity:1">
	<g
   id="g2457"
   style="fill:#505050;fill-opacity:1">
		<path
   d="M281.52,59.32C257.728,41.448,229.544,32,200,32c-4.416,0-8,3.584-8,8v128c0,3.448,2.2,6.496,5.472,7.592    C198.304,175.864,199.16,176,200,176c2.472,0,4.856-1.152,6.4-3.2l76.712-102.288C285.768,66.976,285.048,61.968,281.52,59.32z     M208,144V48.264c20.496,1.352,40.064,7.92,57.36,19.248L208,144z"
   id="path2455"
   style="fill:#505050;fill-opacity:1" />
	</g>
</g>
<g
   id="g2465"
   style="fill:#505050;fill-opacity:1">
	<g
   id="g2463"
   style="fill:#505050;fill-opacity:1">
		<path
   d="M351.584,141.016c-8.744-26.232-25.152-48.952-47.44-65.696c-1.696-1.272-3.824-1.8-5.936-1.528    c-2.104,0.304-4,1.424-5.272,3.12L216.232,179.2c-2.104,2.8-2.136,6.64-0.088,9.472c1.528,2.136,3.968,3.328,6.488,3.328    c0.84,0,1.696-0.136,2.528-0.408l121.368-40.456C350.72,149.736,352.984,145.208,351.584,141.016z M244.4,168.312l56.392-75.184    c14.472,12.424,25.664,27.92,32.84,45.44L244.4,168.312z"
   id="path2461"
   style="fill:#505050;fill-opacity:1" />
	</g>
</g>
<g
   id="g2471"
   style="fill:#505050;fill-opacity:1">
	<g
   id="g2469"
   style="fill:#505050;fill-opacity:1">
		<path
   d="M168,48C93.008,48,32,109.008,32,184c0,31.168,10.328,60.528,29.864,84.92c1.576,1.968,3.904,3,6.248,3    c1.752,0,3.52-0.576,4.992-1.752L173,190.248c1.896-1.52,3-3.816,3-6.248V56C176,51.584,172.416,48,168,48z M160,180.16    l-90.448,72.36C55.424,232.344,48,208.816,48,184c0-63.48,49.552-115.6,112-119.736V180.16z"
   id="path2467"
   style="fill:#505050;fill-opacity:1" />
	</g>
</g>
<g
   id="g2477"
   style="fill:#505050;fill-opacity:1">
	<g
   id="g2475"
   style="fill:#505050;fill-opacity:1">
		<path
   d="M277.664,292.856l-90.512-90.512c-2.872-2.888-7.48-3.152-10.656-0.592L76.6,281.672c-1.664,1.328-2.728,3.256-2.96,5.368    s0.384,4.224,1.712,5.88c26,32.464,64.688,51.08,106.144,51.08c36.328,0,70.48-14.152,96.168-39.832    C280.792,301.04,280.792,295.984,277.664,292.856z M181.496,328c-33.896,0-65.696-14.12-88.448-39l87.848-70.28l79.608,79.608    C238.624,317.52,210.864,328,181.496,328z"
   id="path2473"
   style="fill:#505050;fill-opacity:1" />
	</g>
</g>
<g
   id="g2483"
   style="fill:#505050;fill-opacity:1">
	<g
   id="g2481"
   style="fill:#505050;fill-opacity:1">
		<path
   d="M360.96,173.464c-1.392-4.192-5.912-6.472-10.12-5.056l-121.368,40.456c-2.632,0.88-4.616,3.056-5.256,5.752    c-0.64,2.696,0.168,5.536,2.128,7.496l90.504,90.504c1.56,1.56,3.608,2.344,5.656,2.344c2.048,0,4.096-0.784,5.656-2.344    c25.688-25.68,39.84-59.832,39.84-96.16C368,201.944,365.632,187.48,360.96,173.464z M322.328,295.472l-75.512-75.512    l101.256-33.752c2.608,9.944,3.928,20.088,3.928,30.248C352,245.832,341.52,273.592,322.328,295.472z"
   id="path2479"
   style="fill:#505050;fill-opacity:1" />
	</g>
</g>
<g
   id="g2489"
   style="fill:#505050;fill-opacity:1">
	<g
   id="g2487"
   style="fill:#505050;fill-opacity:1">
		<rect
   x="368"
   y="40"
   width="16"
   height="16"
   id="rect2485"
   style="fill:#505050;fill-opacity:1" />
	</g>
</g>
<g
   id="g2495"
   style="fill:#505050;fill-opacity:1">
	<g
   id="g2493"
   style="fill:#505050;fill-opacity:1">
		<rect
   x="368"
   y="72"
   width="16"
   height="16"
   id="rect2491"
   style="fill:#505050;fill-opacity:1" />
	</g>
</g>
<g
   id="g2501"
   style="fill:#505050;fill-opacity:1">
	<g
   id="g2499"
   style="fill:#505050;fill-opacity:1">
		<rect
   x="368"
   y="104"
   width="16"
   height="16"
   id="rect2497"
   style="fill:#505050;fill-opacity:1" />
	</g>
</g>
<g
   id="g2507"
   style="fill:#505050;fill-opacity:1">
	<g
   id="g2505"
   style="fill:#505050;fill-opacity:1">
		<rect
   x="368"
   y="136"
   width="16"
   height="16"
   id="rect2503"
   style="fill:#505050;fill-opacity:1" />
	</g>
</g>
<g
   id="g2513"
   style="fill:#505050;fill-opacity:1">
	<g
   id="g2511"
   style="fill:#505050;fill-opacity:1">
		<rect
   x="400"
   y="40"
   width="48"
   height="16"
   id="rect2509"
   style="fill:#505050;fill-opacity:1" />
	</g>
</g>
<g
   id="g2519"
   style="fill:#505050;fill-opacity:1">
	<g
   id="g2517"
   style="fill:#505050;fill-opacity:1">
		<rect
   x="400"
   y="72"
   width="48"
   height="16"
   id="rect2515"
   style="fill:#505050;fill-opacity:1" />
	</g>
</g>
<g
   id="g2525"
   style="fill:#505050;fill-opacity:1">
	<g
   id="g2523"
   style="fill:#505050;fill-opacity:1">
		<rect
   x="400"
   y="104"
   width="48"
   height="16"
   id="rect2521"
   style="fill:#505050;fill-opacity:1" />
	</g>
</g>
<g
   id="g2531"
   style="fill:#505050;fill-opacity:1">
	<g
   id="g2529"
   style="fill:#505050;fill-opacity:1">
		<rect
   x="400"
   y="136"
   width="48"
   height="16"
   id="rect2527"
   style="fill:#505050;fill-opacity:1" />
	</g>
</g>
<g
   id="g2537"
   style="fill:#505050;fill-opacity:1">
	<g
   id="g2535"
   style="fill:#505050;fill-opacity:1">
		<rect
   x="432"
   y="328"
   width="16"
   height="16"
   id="rect2533"
   style="fill:#505050;fill-opacity:1" />
	</g>
</g>
<g
   id="g2543"
   style="fill:#505050;fill-opacity:1">
	<g
   id="g2541"
   style="fill:#505050;fill-opacity:1">
		<rect
   x="400"
   y="328"
   width="16"
   height="16"
   id="rect2539"
   style="fill:#505050;fill-opacity:1" />
	</g>
</g>
<g
   id="g2549"
   style="fill:#505050;fill-opacity:1">
	<g
   id="g2547"
   style="fill:#505050;fill-opacity:1">
		<rect
   x="368"
   y="328"
   width="16"
   height="16"
   id="rect2545"
   style="fill:#505050;fill-opacity:1" />
	</g>
</g>
<g
   id="g2551">
</g>
<g
   id="g2553">
</g>
<g
   id="g2555">
</g>
<g
   id="g2557">
</g>
<g
   id="g2559">
</g>
<g
   id="g2561">
</g>
<g
   id="g2563">
</g>
<g
   id="g2565">
</g>
<g
   id="g2567">
</g>
<g
   id="g2569">
</g>
<g
   id="g2571">
</g>
<g
   id="g2573">
</g>
<g
   id="g2575">
</g>
<g
   id="g2577">
</g>
<g
   id="g2579">
</g>
</svg>